HIERARCHY
ROOT Hips
{
	OFFSET 0.000000 0.000000 0.000000
	CHANNELS 6 Xposition Yposition Zposition Yrotation Xrotation Zrotation
	JOINT Chest
	{
		OFFSET 0.000000 -0.009281 11.569106
		CHANNELS 3 Yrotation Xrotation Zrotation
		JOINT Chest2
		{
			OFFSET -0.000000 0.016865 9.269641
			CHANNELS 3 Yrotation Xrotation Zrotation
			JOINT Chest3
			{
				OFFSET -0.000000 0.000001 8.374491
				CHANNELS 3 Yrotation Xrotation Zrotation
				JOINT Chest4
				{
					OFFSET -0.000000 0.000001 8.374493
					CHANNELS 3 Yrotation Xrotation Zrotation
					JOINT Neck
					{
						OFFSET -0.000000 0.000002 12.152554
						CHANNELS 3 Yrotation Xrotation Zrotation
						JOINT Head
						{
							OFFSET -0.000000 0.040101 7.802319
							CHANNELS 3 Yrotation Xrotation Zrotation
							End Site
							{
								OFFSET -0.000000 0.020947 14.853096
							}
						}
					}
					JOINT RightCollar
					{
						OFFSET 2.894404 0.000001 6.791374
						CHANNELS 3 Yrotation Xrotation Zrotation
						JOINT RightShoulder
						{
							OFFSET 13.574684 0.000001 0.000000
							CHANNELS 3 Yrotation Xrotation Zrotation
							JOINT RightElbow
							{
								OFFSET 23.923903 0.000002 0.000000
								CHANNELS 3 Yrotation Xrotation Zrotation
								JOINT RightWrist
								{
									OFFSET 19.846718 0.012767 0.000000
									CHANNELS 3 Yrotation Xrotation Zrotation
									End Site
									{
										OFFSET 14.973145 0.000001 0.000000
									}
								}
							}
						}
					}
					JOINT LeftCollar
					{
						OFFSET -2.894404 0.000001 6.791374
						CHANNELS 3 Yrotation Xrotation Zrotation
						JOINT LeftShoulder
						{
							OFFSET -13.574684 -0.000001 0.000000
							CHANNELS 3 Yrotation Xrotation Zrotation
							JOINT LeftElbow
							{
								OFFSET -23.923903 -0.000002 0.000000
								CHANNELS 3 Yrotation Xrotation Zrotation
								JOINT LeftWrist
								{
									OFFSET -19.846718 0.012763 0.000000
									CHANNELS 3 Yrotation Xrotation Zrotation
									End Site
									{
										OFFSET -14.973145 -0.000001 0.000000
									}
								}
							}
						}
					}
				}
			}
		}
	}
	JOINT RightHip
	{
		OFFSET 9.469263 0.004643 0.045487
		CHANNELS 3 Yrotation Xrotation Zrotation
		JOINT RightKnee
		{
			OFFSET 0.000000 0.002661 -40.478676
			CHANNELS 3 Yrotation Xrotation Zrotation
			JOINT RightAnkle
			{
				OFFSET 0.000000 0.049106 -35.224068
				CHANNELS 3 Yrotation Xrotation Zrotation
				JOINT RightToe
				{
					OFFSET -0.000001 12.539529 -6.151390
					CHANNELS 3 Yrotation Xrotation Zrotation
					End Site
					{
						OFFSET -0.000001 5.044994 -1.291870
					}
				}
			}
		}
	}
	JOINT LeftHip
	{
		OFFSET -9.469263 0.004641 0.045487
		CHANNELS 3 Yrotation Xrotation Zrotation
		JOINT LeftKnee
		{
			OFFSET 0.000000 0.002661 -40.478676
			CHANNELS 3 Yrotation Xrotation Zrotation
			JOINT LeftAnkle
			{
				OFFSET 0.000000 0.049106 -35.224068
				CHANNELS 3 Yrotation Xrotation Zrotation
				JOINT LeftToe
				{
					OFFSET -0.000001 12.539529 -6.151390
					CHANNELS 3 Yrotation Xrotation Zrotation
					End Site
					{
						OFFSET -0.000001 5.044994 -1.291870
					}
				}
			}
		}
	}
}
MOTION
Frames: 15
Frame Time: 0.016667
9.322338 7.087832 83.106834 -5.787542 -1.642658 -107.755680 -0.626414 -3.643497 2.288529 -0.270962 -1.617399 1.036376 -0.270962 -1.617400 1.036376 -0.200465 -1.213514 0.776513 1.127575 -24.308075 -0.784156 1.826589 -8.954558 -1.124685 10.512703 1.767912 -6.447649 57.219736 32.330772 19.790806 37.737103 20.604808 39.598233 22.191143 19.692873 -15.102474 -9.771335 -4.157873 -6.604052 -60.957847 42.407149 -25.481759 -37.983218 33.693012 -43.657715 5.639118 67.366955 -22.863975 -0.962594 -4.697641 -0.990520 2.198019 -5.989836 -9.237056 -1.450600 4.314123 1.508776 0.129019 0.003572 -0.010244 -1.038289 -7.006778 2.263007 0.767659 -2.726437 -0.218903 -0.226069 4.158454 1.125460 -0.153673 -0.053141 0.002802 
9.292063 7.103671 83.112106 -5.819344 -1.644938 -107.717008 -0.629142 -3.643359 2.309291 -0.270405 -1.618135 1.042797 -0.270405 -1.618135 1.042799 -0.200029 -1.214067 0.781333 1.034763 -24.335194 -0.298188 1.781578 -9.009533 -0.276508 10.492986 1.781510 -6.460728 56.976332 32.328337 19.662469 37.943501 20.445242 39.613817 22.300662 19.774151 -15.074929 -9.749540 -4.130832 -6.593617 -60.744274 42.210559 -25.390631 -38.112363 33.548445 -43.792601 5.341473 67.246798 -23.178937 -0.978801 -4.643807 -0.934546 2.226098 -6.119748 -9.279340 -1.492852 4.335242 1.462165 0.131967 0.015442 -0.011091 -1.038306 -6.982593 2.248992 0.756286 -2.783077 -0.226271 -0.212868 4.171197 1.127369 -0.124495 -0.048206 0.003229 
9.265476 7.120405 83.117332 -5.841357 -1.645749 -107.667072 -0.630422 -3.646604 2.325152 -0.269437 -1.619715 1.046943 -0.269438 -1.619716 1.046948 -0.199290 -1.215252 0.784444 0.935338 -24.351451 0.152808 1.715728 -9.044963 0.507357 10.466869 1.827031 -6.470070 56.713263 32.281626 19.614801 38.168685 20.427272 39.765221 22.132936 19.874556 -15.020209 -9.721579 -4.079438 -6.617173 -60.588341 42.050357 -25.473887 -37.965566 33.424340 -43.739408 5.250920 67.127516 -23.241351 -0.987740 -4.608356 -0.894689 2.240538 -6.198820 -9.297674 -1.523858 4.334492 1.381319 0.128652 0.023417 -0.010521 -1.037165 -6.969172 2.216244 0.744351 -2.799897 -0.207825 -0.204417 4.163265 1.099740 -0.097595 -0.043940 0.002646 
9.245598 7.136368 83.122902 -5.858180 -1.640582 -107.605669 -0.633370 -3.654896 2.328554 -0.270208 -1.623056 1.045995 -0.270208 -1.623056 1.045995 -0.199865 -1.217759 0.783728 0.839224 -24.349447 0.562564 1.645542 -9.046685 1.218316 10.439100 1.925021 -6.477983 56.457787 32.214164 19.643583 38.374158 20.494877 39.994125 21.707299 20.052660 -14.936845 -9.686552 -3.995874 -6.647561 -60.409062 41.888693 -25.593322 -37.567861 33.164567 -43.552421 5.418808 66.949029 -23.204432 -1.005000 -4.601935 -0.886352 2.258061 -6.217538 -9.303390 -1.547187 4.315440 1.329824 0.117710 0.024928 -0.008600 -1.043860 -6.968089 2.203533 0.743697 -2.781385 -0.190634 -0.211900 4.135422 1.059396 -0.069553 -0.037587 0.001254 
9.233828 7.149799 83.129112 -5.865926 -1.633133 -107.534860 -0.640859 -3.659875 2.321105 -0.272917 -1.624728 1.040679 -0.272917 -1.624728 1.040679 -0.201907 -1.219015 0.779733 0.764168 -24.330987 0.916661 1.599482 -9.017840 1.834945 10.411883 2.105034 -6.500849 56.188442 32.192649 19.697531 38.573572 20.566272 40.212018 21.228125 20.259190 -14.833308 -9.633325 -3.912855 -6.691664 -60.168140 41.711460 -25.684850 -37.195059 32.808657 -43.417289 5.765369 66.626767 -23.228097 -1.018372 -4.615944 -0.897361 2.268694 -6.191205 -9.321559 -1.556499 4.283218 1.304163 0.100262 0.024954 -0.007361 -1.048034 -6.975980 2.227543 0.741647 -2.734143 -0.211840 -0.221103 4.091397 0.995651 -0.044641 -0.027772 0.000798 
9.228331 7.161897 83.135254 -5.856528 -1.616477 -107.457447 -0.653912 -3.656102 2.311391 -0.278861 -1.622953 1.033294 -0.278861 -1.622953 1.033295 -0.206388 -1.217691 0.774179 0.714816 -24.298577 1.206703 1.583911 -8.962856 2.343360 10.375793 2.253281 -6.526674 55.948904 32.322573 19.831463 38.786534 20.606952 40.389695 20.921573 20.444039 -14.735426 -9.566542 -3.866382 -6.769578 -59.909112 41.494994 -25.771731 -36.916954 32.410532 -43.438186 6.006378 66.118861 -23.398394 -1.037068 -4.634941 -0.908361 2.283960 -6.125878 -9.369726 -1.558975 4.242480 1.293349 0.079697 0.021507 -0.005254 -1.050578 -6.971134 2.275645 0.732320 -2.680860 -0.241738 -0.231550 4.041339 0.918353 -0.021914 -0.014725 -0.001044 
9.227938 7.172656 83.141312 -5.829115 -1.593772 -107.364188 -0.669527 -3.642323 2.301751 -0.286137 -1.617084 1.026358 -0.286137 -1.617084 1.026360 -0.211873 -1.213299 0.768961 0.693310 -24.255349 1.426277 1.601095 -8.887282 2.732568 10.334333 2.405339 -6.538823 55.648457 32.527082 19.923510 39.046819 20.655802 40.590527 20.784643 20.566251 -14.636686 -9.500690 -3.775402 -6.820596 -59.609055 41.153556 -25.810293 -36.665685 31.913816 -43.538491 6.110465 65.469692 -23.631596 -1.048763 -4.657364 -0.932263 2.285788 -6.026931 -9.446780 -1.544924 4.192667 1.308085 0.056673 0.017406 -0.003705 -1.046782 -6.951121 2.304909 0.713210 -2.623825 -0.240067 -0.253282 3.986507 0.802525 0.007300 -0.000626 -0.002166 
9.233053 7.183107 83.147362 -5.786860 -1.571984 -107.254180 -0.683402 -3.614943 2.294921 -0.291541 -1.605435 1.021257 -0.291541 -1.605435 1.021258 -0.215959 -1.204568 0.765129 0.692508 -24.209588 1.578782 1.638888 -8.806216 3.006763 10.274118 2.538032 -6.554862 55.311452 32.741813 19.981317 39.345762 20.769369 40.883081 20.617426 20.658723 -14.561519 -9.444496 -3.688745 -6.851577 -59.255586 40.747751 -25.809659 -36.313408 31.225364 -43.578847 6.089371 64.791714 -23.842766 -1.049419 -4.690249 -0.980150 2.276596 -5.890911 -9.545265 -1.515970 4.130243 1.344811 0.031400 0.014471 -0.001921 -1.034738 -6.922484 2.297703 0.693031 -2.559636 -0.221055 -0.291112 3.925184 0.701312 0.042694 0.013989 -0.004142 
9.245318 7.189830 83.152824 -5.737630 -1.547320 -107.123703 -0.693891 -3.581378 2.282275 -0.295957 -1.590776 1.014848 -0.295957 -1.590776 1.014847 -0.219312 -1.193577 0.760318 0.706830 -24.159327 1.671587 1.689103 -8.715874 3.177792 10.206420 2.644787 -6.555311 54.977767 33.010806 20.035166 39.620841 20.943698 41.239378 20.266763 20.750851 -14.500136 -9.378295 -3.681242 -6.877834 -58.917847 40.346890 -25.830773 -35.897514 30.353893 -43.580811 6.090042 64.001598 -23.948697 -1.042408 -4.746303 -1.059797 2.253613 -5.710071 -9.659826 -1.471805 4.057549 1.404983 0.003872 0.008835 -0.000675 -1.017047 -6.901095 2.271722 0.668730 -2.470827 -0.218261 -0.342205 3.848285 0.611344 0.082054 0.029896 -0.004548 
9.264660 7.194073 83.156906 -5.680962 -1.518614 -106.973999 -0.706564 -3.544716 2.268460 -0.301362 -1.574783 1.008637 -0.301362 -1.574783 1.008636 -0.223409 -1.181589 0.755654 0.738274 -24.105981 1.707685 1.755972 -8.618871 3.251486 10.152146 2.784117 -6.550309 54.639574 33.366970 20.073479 39.845691 21.163213 41.594165 19.795775 20.885252 -14.411629 -9.308821 -3.631808 -6.884957 -58.539448 39.857849 -25.755021 -35.518797 29.362550 -43.637867 6.167063 63.043220 -23.984582 -1.037559 -4.820698 -1.169320 2.229287 -5.491595 -9.776960 -1.419340 3.979576 1.503976 -0.023433 -0.000637 -0.000420 -1.001904 -6.888092 2.239800 0.653259 -2.352930 -0.239771 -0.408469 3.757094 0.519848 0.121544 0.043782 -0.003845 
9.289135 7.199873 83.159386 -5.618437 -1.484904 -106.802623 -0.718707 -3.506267 2.247166 -0.306421 -1.558273 0.999001 -0.306421 -1.558273 0.999000 -0.227254 -1.169210 0.748423 0.783253 -24.052163 1.691665 1.834054 -8.519960 3.235126 10.088589 2.939387 -6.562635 54.354594 33.815362 20.127558 39.981503 21.397811 41.929189 19.509761 20.965505 -14.241650 -9.242149 -3.618374 -6.918679 -58.165030 39.374159 -25.651668 -35.227773 28.325515 -43.774611 6.117754 62.048437 -24.065374 -1.030183 -4.905259 -1.292110 2.203277 -5.251717 -9.895062 -1.364715 3.900453 1.556015 -0.048597 -0.011009 -0.001020 -0.990792 -6.876638 2.207930 0.640603 -2.218202 -0.283651 -0.474275 3.657991 0.432929 0.153704 0.053955 -0.002861 
9.316909 7.203434 83.160805 -5.546047 -1.451734 -106.611391 -0.716994 -3.461332 2.216394 -0.304267 -1.538527 0.985162 -0.304267 -1.538527 0.985161 -0.225707 -1.154390 0.738061 0.829678 -24.002635 1.622671 1.901226 -8.427524 3.123999 10.003234 3.088393 -6.575888 54.099217 34.365202 20.185883 40.080202 21.655764 42.266430 19.473298 20.914796 -14.026219 -9.204386 -3.568214 -6.922445 -57.790135 38.824762 -25.492296 -34.958827 27.306383 -43.917372 5.702643 60.791074 -24.267928 -1.017909 -4.992419 -1.408816 2.173185 -4.996499 -10.031063 -1.303976 3.819393 1.622963 -0.069082 -0.021114 -0.000049 -0.975746 -6.861077 2.180818 0.629502 -2.073621 -0.354989 -0.537846 3.559459 0.348114 0.178353 0.056173 -0.001969 
9.345766 7.208002 83.161987 -5.465573 -1.408038 -106.402060 -0.713010 -3.416264 2.179987 -0.299674 -1.518806 0.968739 -0.299674 -1.518806 0.968737 -0.222335 -1.139583 0.725767 0.880216 -23.954143 1.503286 1.962901 -8.335641 2.923425 9.917407 3.239601 -6.565642 53.847996 35.018988 20.205113 40.191411 21.932963 42.639611 19.578374 20.732404 -13.721461 -9.189914 -3.449501 -6.904705 -57.392748 38.236529 -25.246430 -34.614415 26.221159 -43.961679 4.964229 59.301178 -24.468145 -1.010686 -5.072093 -1.515784 2.145657 -4.740059 -10.185333 -1.245205 3.743499 1.692688 -0.085156 -0.031417 0.000880 -0.973767 -6.831690 2.147731 0.630042 -1.932664 -0.427233 -0.601418 3.463487 0.254384 0.194091 0.053811 -0.002083 
9.369799 7.215962 83.164047 -5.381286 -1.368290 -106.178644 -0.706345 -3.370492 2.149110 -0.295298 -1.500347 0.953497 -0.295298 -1.500347 0.953498 -0.219119 -1.125725 0.714357 0.946683 -23.908309 1.327916 2.038754 -8.247613 2.626318 9.847448 3.388987 -6.565283 53.624942 35.703356 20.194895 40.360783 22.321560 43.124343 19.856461 20.662398 -13.245512 -9.167294 -3.327607 -6.880535 -56.963009 37.689537 -24.921818 -34.280890 24.981453 -43.883580 3.892601 57.687709 -24.573318 -1.005374 -5.137838 -1.603406 2.135684 -4.508195 -10.343324 -1.195744 3.672874 1.720279 -0.096391 -0.031336 0.000795 -0.967210 -6.784770 2.096995 0.634505 -1.804020 -0.495411 -0.667608 3.354253 0.158447 0.206943 0.059655 -0.001652 
9.391079 7.224936 83.166946 -5.305657 -1.326333 -105.940312 -0.698760 -3.333399 2.114802 -0.290778 -1.484843 0.936807 -0.290778 -1.484843 0.936807 -0.215795 -1.114080 0.701859 1.024266 -23.867241 1.105259 2.122221 -8.167491 2.247017 9.768594 3.484541 -6.579499 53.517022 36.384742 20.246812 40.632853 22.919485 43.768399 20.173917 20.766972 -12.590194 -9.145570 -3.150011 -6.821327 -56.423824 37.142838 -24.432826 -34.006443 23.525429 -43.660772 2.693921 56.179761 -24.409334 -1.005147 -5.192561 -1.672530 2.126430 -4.303015 -10.512223 -1.148082 3.611588 1.738901 -0.101852 -0.031921 0.001172 -0.963406 -6.738367 2.031345 0.637582 -1.690383 -0.564119 -0.733254 3.254097 0.061059 0.217636 0.061945 -0.000952 
